<svg xmlns="http://www.w3.org/2000/svg" xmlns:xlink="http://www.w3.org/1999/xlink" width="229" height="229" version="1.1" viewBox="0 0 229 229"><desc>Created with Lunacy</desc><defs><linearGradient id="gradient_1" x1=".5" x2=".5" y1="0" y2="1"><stop offset="0" stop-color="#1F1F1F"/><stop offset="1" stop-color="#787878"/></linearGradient><radialGradient id="gradient_2" cx="50%" cy="50%" r="50%" fx="50%" fy="50%" gradientTransform="translate(0.5,0.5),scale(1,0.9999999),rotate(90),translate(-0.5,-0.5)" gradientUnits="objectBoundingBox"><stop offset="0%" stop-color="#1F1F1F"/><stop offset="100%" stop-color="#787878"/></radialGradient><linearGradient id="gradient_3" x1=".894" x2=".816" y1=".175" y2=".256"><stop offset="0" stop-color="#FFF"/><stop offset="1" stop-color="#FFF" stop-opacity=".561"/></linearGradient><path id="path_1" d="M97.0073 194.015C150.583 194.015 194.015 150.583 194.015 97.0073C194.015 43.4317 150.583 0 97.0073 0C43.4317 0 0 43.4317 0 97.0073C0 150.583 43.4317 194.015 97.0073 194.015Z" transform="translate(1.770203 3.894409)"/></defs><g id="clock" transform="translate(15 15)"><path id="Oval" fill="url(#gradient_1)" stroke="none" d="M99.1316 198.263C153.88 198.263 198.263 153.88 198.263 99.1316C198.263 44.3827 153.88 0 99.1316 0C44.3827 0 0 44.3827 0 99.1316C0 153.88 44.3827 198.263 99.1316 198.263Z"/><path id="Oval" fill="#686868" stroke="none" d="M58.4168 116.834C90.6795 116.834 116.834 90.6795 116.834 58.4168C116.834 26.1541 90.6795 0 58.4168 0C26.1541 0 0 26.1541 0 58.4168C0 90.6795 26.1541 116.834 58.4168 116.834Z" transform="translate(40.36069 42.48499)"/><g id="Oval"><use fill="none" stroke="url(#gradient_2)" stroke-width="30" xlink:href="#path_1"/></g><path id="Oval" fill="none" stroke="url(#gradient_3)" stroke-dasharray="0 34" stroke-linecap="round" stroke-width="3" d="M76.4729 152.946C118.708 152.946 152.946 118.708 152.946 76.4729C152.946 34.2381 118.708 0 76.4729 0C34.2381 0 0 34.2381 0 76.4729C0 118.708 34.2381 152.946 76.4729 152.946Z" transform="translate(22.3046 24.42883)"/></g></svg>